<mxfile host="app.diagrams.net" modified="2023-08-09T10:10:25.209Z" agent="Mozilla/5.0 (Windows NT 10.0; Win64; x64) AppleWebKit/537.36 (KHTML, like Gecko) Chrome/115.0.0.0 Safari/537.36" etag="IJEJcmnb4_xPNn0NdxB3" version="21.6.7" type="device">
  <diagram name="Page-1" id="uVY88AYn5NiRDJBffOB0">
    <mxGraphModel dx="2138" dy="778" grid="1" gridSize="10" guides="1" tooltips="1" connect="1" arrows="1" fold="1" page="1" pageScale="1" pageWidth="827" pageHeight="1169" math="0" shadow="0">
      <root>
        <mxCell id="0" />
        <mxCell id="1" parent="0" />
        <mxCell id="nG5wxtSA3B4YETZmWFmu-6" value="" style="rounded=1;whiteSpace=wrap;html=1;dashed=1;" vertex="1" parent="1">
          <mxGeometry x="40" y="140" width="710" height="460" as="geometry" />
        </mxCell>
        <mxCell id="XjQan9eISK3urUrsUjt1-10" value="&lt;font style=&quot;&quot;&gt;&lt;span style=&quot;font-size: 16px;&quot;&gt;&lt;b&gt;DSFQ XOR&lt;/b&gt;&lt;/span&gt;&lt;/font&gt;" style="text;html=1;align=center;verticalAlign=middle;resizable=0;points=[];autosize=1;strokeColor=none;fillColor=none;" parent="1" vertex="1">
          <mxGeometry x="359" y="100" width="110" height="30" as="geometry" />
        </mxCell>
        <mxCell id="XjQan9eISK3urUrsUjt1-79" style="edgeStyle=orthogonalEdgeStyle;rounded=0;orthogonalLoop=1;jettySize=auto;html=1;entryX=0;entryY=0.5;entryDx=0;entryDy=0;exitX=1;exitY=0.5;exitDx=0;exitDy=0;" parent="1" source="nG5wxtSA3B4YETZmWFmu-3" target="XjQan9eISK3urUrsUjt1-51" edge="1">
          <mxGeometry relative="1" as="geometry">
            <mxPoint x="33.99999999999977" y="240" as="sourcePoint" />
          </mxGeometry>
        </mxCell>
        <mxCell id="XjQan9eISK3urUrsUjt1-80" style="edgeStyle=orthogonalEdgeStyle;rounded=0;orthogonalLoop=1;jettySize=auto;html=1;entryX=0;entryY=0.5;entryDx=0;entryDy=0;exitX=1;exitY=0.5;exitDx=0;exitDy=0;" parent="1" source="nG5wxtSA3B4YETZmWFmu-5" target="XjQan9eISK3urUrsUjt1-52" edge="1">
          <mxGeometry relative="1" as="geometry">
            <mxPoint x="33.99999999999977" y="340" as="sourcePoint" />
          </mxGeometry>
        </mxCell>
        <mxCell id="XjQan9eISK3urUrsUjt1-64" value="&lt;b&gt;&lt;font color=&quot;#ab2e2e&quot;&gt;AND1&lt;/font&gt;&lt;/b&gt;" style="edgeStyle=orthogonalEdgeStyle;rounded=0;orthogonalLoop=1;jettySize=auto;html=1;exitX=1;exitY=0.5;exitDx=0;exitDy=0;exitPerimeter=0;" parent="1" source="XjQan9eISK3urUrsUjt1-47" edge="1">
          <mxGeometry x="-0.3429" relative="1" as="geometry">
            <Array as="points">
              <mxPoint x="450" y="290" />
              <mxPoint x="450" y="290" />
            </Array>
            <mxPoint x="484" y="290" as="targetPoint" />
            <mxPoint as="offset" />
          </mxGeometry>
        </mxCell>
        <mxCell id="nG5wxtSA3B4YETZmWFmu-1" value="" style="edgeStyle=orthogonalEdgeStyle;rounded=0;orthogonalLoop=1;jettySize=auto;html=1;" edge="1" parent="1" source="XjQan9eISK3urUrsUjt1-47" target="XjQan9eISK3urUrsUjt1-70">
          <mxGeometry relative="1" as="geometry" />
        </mxCell>
        <mxCell id="XjQan9eISK3urUrsUjt1-47" value="&lt;b&gt;DSFQ AND&lt;/b&gt;" style="verticalLabelPosition=top;shadow=0;dashed=0;align=center;html=1;verticalAlign=bottom;shape=mxgraph.electrical.logic_gates.logic_gate;operation=and;labelPosition=center;" parent="1" vertex="1">
          <mxGeometry x="304" y="260" width="100" height="60" as="geometry" />
        </mxCell>
        <mxCell id="XjQan9eISK3urUrsUjt1-88" value="&lt;b&gt;&lt;font color=&quot;#ab2e2e&quot;&gt;AND2&lt;/font&gt;&lt;/b&gt;" style="edgeStyle=orthogonalEdgeStyle;rounded=0;orthogonalLoop=1;jettySize=auto;html=1;entryX=0;entryY=0.25;entryDx=0;entryDy=0;entryPerimeter=0;" parent="1" source="XjQan9eISK3urUrsUjt1-48" target="XjQan9eISK3urUrsUjt1-76" edge="1">
          <mxGeometry relative="1" as="geometry">
            <mxPoint as="offset" />
          </mxGeometry>
        </mxCell>
        <mxCell id="XjQan9eISK3urUrsUjt1-48" value="&lt;b&gt;DSFQ NOT&lt;/b&gt;" style="verticalLabelPosition=top;shadow=0;dashed=0;align=center;html=1;verticalAlign=bottom;shape=mxgraph.electrical.logic_gates.inverter_2;rotation=0;labelPosition=center;" parent="1" vertex="1">
          <mxGeometry x="484" y="260" width="100" height="60" as="geometry" />
        </mxCell>
        <mxCell id="XjQan9eISK3urUrsUjt1-85" value="&lt;b&gt;&lt;font color=&quot;#ab2e2e&quot;&gt;OR1&lt;/font&gt;&lt;/b&gt;" style="edgeStyle=orthogonalEdgeStyle;rounded=0;orthogonalLoop=1;jettySize=auto;html=1;entryX=0;entryY=0.5;entryDx=0;entryDy=0;" parent="1" source="XjQan9eISK3urUrsUjt1-49" target="XjQan9eISK3urUrsUjt1-83" edge="1">
          <mxGeometry x="0.3091" y="10" relative="1" as="geometry">
            <mxPoint as="offset" />
          </mxGeometry>
        </mxCell>
        <mxCell id="XjQan9eISK3urUrsUjt1-49" value="DSFQ OR" style="verticalLabelPosition=bottom;shadow=0;dashed=0;align=center;html=1;verticalAlign=top;shape=mxgraph.electrical.logic_gates.logic_gate;operation=or;" parent="1" vertex="1">
          <mxGeometry x="284" y="490" width="100" height="60" as="geometry" />
        </mxCell>
        <mxCell id="XjQan9eISK3urUrsUjt1-63" style="edgeStyle=orthogonalEdgeStyle;rounded=0;orthogonalLoop=1;jettySize=auto;html=1;entryX=0;entryY=0.5;entryDx=0;entryDy=0;" parent="1" edge="1">
          <mxGeometry relative="1" as="geometry">
            <mxPoint x="359" y="60" as="sourcePoint" />
          </mxGeometry>
        </mxCell>
        <mxCell id="XjQan9eISK3urUrsUjt1-56" value="&lt;b&gt;&lt;font color=&quot;#ab2e2e&quot;&gt;A1&lt;/font&gt;&lt;/b&gt;" style="edgeStyle=orthogonalEdgeStyle;rounded=0;orthogonalLoop=1;jettySize=auto;html=1;entryX=0;entryY=0.5;entryDx=0;entryDy=0;" parent="1" source="XjQan9eISK3urUrsUjt1-51" target="XjQan9eISK3urUrsUjt1-53" edge="1">
          <mxGeometry x="-0.037" relative="1" as="geometry">
            <mxPoint as="offset" />
          </mxGeometry>
        </mxCell>
        <mxCell id="XjQan9eISK3urUrsUjt1-78" value="&lt;b&gt;&lt;font color=&quot;#ab2e2e&quot;&gt;A2&lt;/font&gt;&lt;/b&gt;" style="edgeStyle=orthogonalEdgeStyle;rounded=0;orthogonalLoop=1;jettySize=auto;html=1;entryX=0;entryY=0.5;entryDx=0;entryDy=0;exitX=0.5;exitY=1;exitDx=0;exitDy=0;" parent="1" source="XjQan9eISK3urUrsUjt1-51" target="XjQan9eISK3urUrsUjt1-77" edge="1">
          <mxGeometry x="-0.6776" relative="1" as="geometry">
            <Array as="points">
              <mxPoint x="114" y="300" />
              <mxPoint x="64" y="300" />
              <mxPoint x="64" y="535" />
            </Array>
            <mxPoint as="offset" />
          </mxGeometry>
        </mxCell>
        <mxCell id="XjQan9eISK3urUrsUjt1-51" value="RSFQ SPLIT" style="rounded=1;whiteSpace=wrap;html=1;" parent="1" vertex="1">
          <mxGeometry x="84" y="210" width="60" height="60" as="geometry" />
        </mxCell>
        <mxCell id="XjQan9eISK3urUrsUjt1-57" value="&lt;b&gt;&lt;font color=&quot;#ab2e2e&quot;&gt;B1&lt;/font&gt;&lt;/b&gt;" style="edgeStyle=orthogonalEdgeStyle;rounded=0;orthogonalLoop=1;jettySize=auto;html=1;entryX=0;entryY=0.5;entryDx=0;entryDy=0;" parent="1" source="XjQan9eISK3urUrsUjt1-52" target="XjQan9eISK3urUrsUjt1-54" edge="1">
          <mxGeometry relative="1" as="geometry" />
        </mxCell>
        <mxCell id="XjQan9eISK3urUrsUjt1-58" value="&lt;b&gt;&lt;font color=&quot;#ab2e2e&quot;&gt;B2&lt;/font&gt;&lt;/b&gt;" style="edgeStyle=orthogonalEdgeStyle;rounded=0;orthogonalLoop=1;jettySize=auto;html=1;entryX=0.5;entryY=0;entryDx=0;entryDy=0;" parent="1" source="XjQan9eISK3urUrsUjt1-52" target="XjQan9eISK3urUrsUjt1-55" edge="1">
          <mxGeometry relative="1" as="geometry" />
        </mxCell>
        <mxCell id="XjQan9eISK3urUrsUjt1-52" value="RSFQ SPLIT" style="rounded=1;whiteSpace=wrap;html=1;" parent="1" vertex="1">
          <mxGeometry x="84" y="310" width="60" height="60" as="geometry" />
        </mxCell>
        <mxCell id="XjQan9eISK3urUrsUjt1-60" value="&lt;font color=&quot;#ab2e2e&quot;&gt;&lt;b&gt;A3&lt;/b&gt;&lt;/font&gt;" style="edgeStyle=orthogonalEdgeStyle;rounded=0;orthogonalLoop=1;jettySize=auto;html=1;entryX=0;entryY=0.25;entryDx=0;entryDy=0;entryPerimeter=0;" parent="1" source="XjQan9eISK3urUrsUjt1-53" target="XjQan9eISK3urUrsUjt1-47" edge="1">
          <mxGeometry x="-0.0006" relative="1" as="geometry">
            <mxPoint as="offset" />
          </mxGeometry>
        </mxCell>
        <mxCell id="XjQan9eISK3urUrsUjt1-67" style="edgeStyle=orthogonalEdgeStyle;rounded=0;orthogonalLoop=1;jettySize=auto;html=1;" parent="1" source="XjQan9eISK3urUrsUjt1-53" target="XjQan9eISK3urUrsUjt1-65" edge="1">
          <mxGeometry relative="1" as="geometry" />
        </mxCell>
        <mxCell id="XjQan9eISK3urUrsUjt1-53" value="JTL" style="rounded=1;whiteSpace=wrap;html=1;" parent="1" vertex="1">
          <mxGeometry x="198" y="210" width="60" height="60" as="geometry" />
        </mxCell>
        <mxCell id="XjQan9eISK3urUrsUjt1-61" value="&lt;font color=&quot;#ab2e2e&quot;&gt;&lt;b&gt;B3&lt;/b&gt;&lt;/font&gt;" style="edgeStyle=orthogonalEdgeStyle;rounded=0;orthogonalLoop=1;jettySize=auto;html=1;entryX=0;entryY=0.75;entryDx=0;entryDy=0;entryPerimeter=0;" parent="1" source="XjQan9eISK3urUrsUjt1-54" target="XjQan9eISK3urUrsUjt1-47" edge="1">
          <mxGeometry x="0.0051" relative="1" as="geometry">
            <mxPoint as="offset" />
          </mxGeometry>
        </mxCell>
        <mxCell id="XjQan9eISK3urUrsUjt1-72" style="edgeStyle=orthogonalEdgeStyle;rounded=0;orthogonalLoop=1;jettySize=auto;html=1;entryX=0;entryY=0.5;entryDx=0;entryDy=0;" parent="1" source="XjQan9eISK3urUrsUjt1-54" target="XjQan9eISK3urUrsUjt1-70" edge="1">
          <mxGeometry relative="1" as="geometry" />
        </mxCell>
        <mxCell id="XjQan9eISK3urUrsUjt1-54" value="JTL" style="rounded=1;whiteSpace=wrap;html=1;" parent="1" vertex="1">
          <mxGeometry x="198" y="310" width="60" height="60" as="geometry" />
        </mxCell>
        <mxCell id="XjQan9eISK3urUrsUjt1-81" value="&lt;b&gt;&lt;font color=&quot;#ab2e2e&quot;&gt;B4&lt;/font&gt;&lt;/b&gt;" style="edgeStyle=orthogonalEdgeStyle;rounded=0;orthogonalLoop=1;jettySize=auto;html=1;entryX=0;entryY=0.25;entryDx=0;entryDy=0;entryPerimeter=0;" parent="1" source="XjQan9eISK3urUrsUjt1-55" target="XjQan9eISK3urUrsUjt1-49" edge="1">
          <mxGeometry relative="1" as="geometry" />
        </mxCell>
        <mxCell id="XjQan9eISK3urUrsUjt1-55" value="JTL" style="rounded=1;whiteSpace=wrap;html=1;" parent="1" vertex="1">
          <mxGeometry x="84" y="420" width="60" height="60" as="geometry" />
        </mxCell>
        <mxCell id="XjQan9eISK3urUrsUjt1-65" value="JTL" style="rounded=1;whiteSpace=wrap;html=1;" parent="1" vertex="1">
          <mxGeometry x="324" y="150" width="60" height="60" as="geometry" />
        </mxCell>
        <mxCell id="XjQan9eISK3urUrsUjt1-68" value="&lt;b&gt;&lt;font color=&quot;#ab2e2e&quot;&gt;CLK A&lt;/font&gt;&lt;/b&gt;" style="edgeStyle=orthogonalEdgeStyle;rounded=0;orthogonalLoop=1;jettySize=auto;html=1;entryX=0.169;entryY=0.254;entryDx=0;entryDy=0;entryPerimeter=0;exitX=1;exitY=0.5;exitDx=0;exitDy=0;" parent="1" source="XjQan9eISK3urUrsUjt1-65" target="XjQan9eISK3urUrsUjt1-48" edge="1">
          <mxGeometry x="-0.1918" relative="1" as="geometry">
            <mxPoint x="469" y="180" as="sourcePoint" />
            <Array as="points">
              <mxPoint x="384" y="220" />
              <mxPoint x="460" y="220" />
              <mxPoint x="460" y="275" />
            </Array>
            <mxPoint as="offset" />
          </mxGeometry>
        </mxCell>
        <mxCell id="XjQan9eISK3urUrsUjt1-70" value="JTL" style="rounded=1;whiteSpace=wrap;html=1;" parent="1" vertex="1">
          <mxGeometry x="324" y="370" width="60" height="60" as="geometry" />
        </mxCell>
        <mxCell id="XjQan9eISK3urUrsUjt1-74" value="&lt;b&gt;&lt;font color=&quot;#ab2e2e&quot;&gt;CLK B&lt;/font&gt;&lt;/b&gt;" style="edgeStyle=orthogonalEdgeStyle;rounded=0;orthogonalLoop=1;jettySize=auto;html=1;exitX=1;exitY=0.5;exitDx=0;exitDy=0;entryX=0.164;entryY=0.78;entryDx=0;entryDy=0;entryPerimeter=0;" parent="1" source="XjQan9eISK3urUrsUjt1-70" target="XjQan9eISK3urUrsUjt1-48" edge="1">
          <mxGeometry relative="1" as="geometry">
            <mxPoint x="469" y="400" as="sourcePoint" />
            <mxPoint x="470" y="310" as="targetPoint" />
            <Array as="points">
              <mxPoint x="384" y="340" />
              <mxPoint x="460" y="340" />
              <mxPoint x="460" y="307" />
            </Array>
          </mxGeometry>
        </mxCell>
        <mxCell id="XjQan9eISK3urUrsUjt1-89" style="edgeStyle=orthogonalEdgeStyle;rounded=0;orthogonalLoop=1;jettySize=auto;html=1;entryX=0;entryY=0.5;entryDx=0;entryDy=0;" parent="1" source="XjQan9eISK3urUrsUjt1-76" target="nG5wxtSA3B4YETZmWFmu-7" edge="1">
          <mxGeometry relative="1" as="geometry">
            <mxPoint x="780" y="380" as="targetPoint" />
          </mxGeometry>
        </mxCell>
        <mxCell id="XjQan9eISK3urUrsUjt1-76" value="&lt;b&gt;&lt;font&gt;DSFQ AND&lt;/font&gt;&lt;/b&gt;" style="verticalLabelPosition=top;shadow=0;dashed=0;align=center;html=1;verticalAlign=bottom;shape=mxgraph.electrical.logic_gates.logic_gate;operation=and;labelPosition=center;fontColor=#000000;" parent="1" vertex="1">
          <mxGeometry x="641" y="350" width="100" height="60" as="geometry" />
        </mxCell>
        <mxCell id="XjQan9eISK3urUrsUjt1-82" value="&lt;b&gt;&lt;font color=&quot;#ab2e2e&quot;&gt;A4&lt;/font&gt;&lt;/b&gt;" style="edgeStyle=orthogonalEdgeStyle;rounded=0;orthogonalLoop=1;jettySize=auto;html=1;entryX=0;entryY=0.75;entryDx=0;entryDy=0;entryPerimeter=0;" parent="1" source="XjQan9eISK3urUrsUjt1-77" target="XjQan9eISK3urUrsUjt1-49" edge="1">
          <mxGeometry x="0.0049" relative="1" as="geometry">
            <mxPoint as="offset" />
          </mxGeometry>
        </mxCell>
        <mxCell id="XjQan9eISK3urUrsUjt1-77" value="JTL" style="rounded=1;whiteSpace=wrap;html=1;" parent="1" vertex="1">
          <mxGeometry x="84" y="505" width="60" height="60" as="geometry" />
        </mxCell>
        <mxCell id="XjQan9eISK3urUrsUjt1-86" value="&lt;b&gt;&lt;font color=&quot;#ab2e2e&quot;&gt;OR2&lt;/font&gt;&lt;/b&gt;" style="edgeStyle=orthogonalEdgeStyle;rounded=0;orthogonalLoop=1;jettySize=auto;html=1;entryX=0;entryY=0.5;entryDx=0;entryDy=0;" parent="1" target="XjQan9eISK3urUrsUjt1-84" edge="1">
          <mxGeometry x="0.0271" y="10" relative="1" as="geometry">
            <mxPoint x="469" y="520" as="sourcePoint" />
            <mxPoint as="offset" />
          </mxGeometry>
        </mxCell>
        <mxCell id="XjQan9eISK3urUrsUjt1-83" value="JTL" style="rounded=1;whiteSpace=wrap;html=1;" parent="1" vertex="1">
          <mxGeometry x="409" y="490" width="60" height="60" as="geometry" />
        </mxCell>
        <mxCell id="XjQan9eISK3urUrsUjt1-87" value="&lt;b&gt;&lt;font color=&quot;#ab2e2e&quot;&gt;OR3&lt;/font&gt;&lt;/b&gt;" style="edgeStyle=orthogonalEdgeStyle;rounded=0;orthogonalLoop=1;jettySize=auto;html=1;entryX=0;entryY=0.75;entryDx=0;entryDy=0;entryPerimeter=0;" parent="1" source="XjQan9eISK3urUrsUjt1-84" target="XjQan9eISK3urUrsUjt1-76" edge="1">
          <mxGeometry relative="1" as="geometry" />
        </mxCell>
        <mxCell id="XjQan9eISK3urUrsUjt1-84" value="JTL" style="rounded=1;whiteSpace=wrap;html=1;" parent="1" vertex="1">
          <mxGeometry x="524" y="490" width="60" height="60" as="geometry" />
        </mxCell>
        <mxCell id="nG5wxtSA3B4YETZmWFmu-3" value="A" style="rounded=1;whiteSpace=wrap;html=1;fontStyle=1" vertex="1" parent="1">
          <mxGeometry x="-70" y="210" width="60" height="60" as="geometry" />
        </mxCell>
        <mxCell id="nG5wxtSA3B4YETZmWFmu-5" value="B" style="rounded=1;whiteSpace=wrap;html=1;fontStyle=1" vertex="1" parent="1">
          <mxGeometry x="-70" y="310" width="60" height="60" as="geometry" />
        </mxCell>
        <mxCell id="nG5wxtSA3B4YETZmWFmu-7" value="Q" style="rounded=1;whiteSpace=wrap;html=1;fontStyle=1" vertex="1" parent="1">
          <mxGeometry x="780" y="350" width="60" height="60" as="geometry" />
        </mxCell>
      </root>
    </mxGraphModel>
  </diagram>
</mxfile>
